<?xml version="1.0" standalone="no"?>
<!DOCTYPE svg PUBLIC "-//W3C//DTD SVG 20010904//EN"
 "http://www.w3.org/TR/2001/REC-SVG-20010904/DTD/svg10.dtd">
<svg version="1.0" xmlns="http://www.w3.org/2000/svg"
 width="140.000000pt" height="145.000000pt" viewBox="0 0 140.000000 145.000000"
 preserveAspectRatio="xMidYMid meet">
<metadata>
Created by potrace 1.10, written by Peter Selinger 2001-2011
</metadata>
<g transform="translate(0.000000,145.000000) scale(0.100000,-0.100000)"
fill="#000000" stroke="none">
<path d="M425 1325 c-182 -64 -327 -221 -392 -424 -36 -112 -39 -278 -6 -382
53 -168 147 -300 229 -320 27 -7 44 -17 44 -26 0 -45 126 -111 225 -118 56 -4
76 4 122 48 l32 30 29 -31 c60 -64 170 -60 307 11 80 42 211 173 253 254 74
141 102 281 82 416 -14 98 -28 145 -74 235 -58 114 -139 192 -200 192 -19 0
-24 4 -19 16 3 9 -6 27 -23 45 -33 35 -161 79 -229 79 -38 0 -50 -6 -86 -40
l-42 -39 -19 25 c-47 59 -121 69 -233 29z m191 -36 c16 -18 20 -42 24 -168 3
-80 5 -147 5 -148 -1 -2 -19 6 -40 17 -22 11 -56 20 -77 20 -26 0 -38 4 -38
14 0 20 -54 63 -89 71 -68 15 -141 -51 -141 -127 0 -48 47 -105 95 -114 51 -9
104 12 127 52 23 38 50 44 98 19 61 -32 60 -25 60 -423 l0 -363 -26 -24 c-40
-38 -121 -30 -236 22 l-58 26 43 27 c58 36 77 79 77 172 0 71 1 73 29 86 65
29 76 123 23 183 -78 87 -229 9 -208 -106 7 -35 50 -85 72 -85 18 0 19 -117 2
-155 -13 -29 -55 -55 -89 -55 -61 0 -185 196 -215 340 -56 264 74 561 297 680
120 63 228 80 265 39z m325 -7 c30 -12 63 -28 73 -35 17 -13 16 -15 -18 -35
-57 -34 -76 -74 -76 -165 0 -73 -1 -78 -25 -87 -31 -12 -65 -66 -65 -103 0
-61 62 -127 118 -127 78 0 141 80 121 153 -6 22 -24 48 -44 64 -34 27 -35 30
-35 96 0 62 3 71 29 98 21 21 39 29 64 29 30 0 42 -8 82 -52 63 -72 121 -194
141 -298 58 -296 -111 -610 -381 -705 -122 -43 -184 -30 -205 43 -10 38 -14
272 -5 272 3 0 16 -7 29 -15 13 -9 47 -18 75 -22 29 -3 51 -11 51 -18 0 -18
44 -55 76 -64 39 -10 87 6 121 41 23 24 28 38 28 79 0 46 -4 54 -39 86 -35 33
-42 35 -87 31 -52 -5 -85 -27 -100 -67 -8 -20 -14 -22 -47 -17 -20 4 -48 15
-62 25 -47 34 -50 66 -48 431 l3 338 25 27 c23 25 30 27 85 22 33 -2 85 -14
116 -25z m-533 -268 c43 -30 21 -94 -32 -94 -22 0 -46 28 -46 55 0 20 32 55
50 55 3 0 16 -7 28 -16z m267 -64 c3 -6 3 -20 0 -31 -6 -19 -9 -20 -22 -6 -9
9 -13 23 -10 31 7 18 23 21 32 6z m317 -71 c16 -22 18 -30 9 -48 -16 -30 -57
-38 -81 -16 -26 23 -25 50 1 76 25 25 46 22 71 -12z m-550 -296 c22 -20 23
-41 1 -65 -20 -22 -51 -23 -75 -1 -22 20 -23 41 -1 65 20 22 51 23 75 1z m266
-129 c-15 -15 -16 -15 -23 5 -9 31 4 46 23 27 15 -15 15 -17 0 -32z m306 10
c32 -31 8 -84 -38 -84 -30 0 -46 18 -46 52 0 43 53 64 84 32z"/>
</g>
</svg>
