<?xml version="1.0" standalone="no"?>
<!DOCTYPE svg PUBLIC "-//W3C//DTD SVG 20010904//EN"
 "http://www.w3.org/TR/2001/REC-SVG-20010904/DTD/svg10.dtd">
<svg version="1.0" xmlns="http://www.w3.org/2000/svg"
 width="200.000000pt" height="200.000000pt" viewBox="0 0 200.000000 200.000000"
 preserveAspectRatio="xMidYMid meet">
<metadata>
Created by potrace 1.16, written by Peter Selinger 2001-2019
</metadata>
<g transform="translate(0.000000,200.000000) scale(0.100000,-0.100000)"
fill="#000000" stroke="none">
<path d="M610 1889 c-53 -21 -100 -91 -100 -149 0 -46 32 -36 43 13 11 45 54
93 91 103 47 11 51 -9 13 -62 -68 -96 -73 -178 -15 -248 37 -45 81 -66 140
-66 95 -1 168 -37 168 -84 0 -12 -11 -48 -25 -81 -30 -74 -31 -131 -4 -196 12
-27 19 -52 16 -55 -8 -8 -59 29 -95 70 -24 27 -31 46 -37 102 -4 38 -13 81
-21 96 -18 34 -66 70 -124 92 -107 41 -143 81 -161 184 -23 125 -93 173 -221
150 -29 -6 -96 -11 -148 -11 -83 -2 -95 -4 -98 -20 -9 -44 71 -88 184 -102 70
-9 143 -53 174 -105 58 -97 85 -124 155 -158 177 -85 160 -73 159 -117 -1 -22
-7 -66 -15 -97 -14 -63 -5 -113 21 -113 11 0 14 10 12 43 -3 43 25 142 40 142
4 0 8 -14 8 -30 0 -44 22 -81 72 -122 74 -60 97 -68 122 -42 22 21 20 67 -4
114 -26 52 -25 94 5 158 33 71 33 121 -1 161 -38 45 -57 52 -156 61 -79 6 -92
10 -118 35 -36 35 -51 82 -40 128 8 40 13 49 50 97 41 53 43 68 15 96 -26 25
-62 30 -105 13z m-211 -184 c31 -16 42 -38 66 -134 23 -93 52 -126 154 -174
84 -38 131 -71 131 -90 0 -5 -13 2 -29 15 -15 13 -57 35 -92 48 -91 33 -136
64 -169 118 -81 131 -124 162 -254 182 -38 6 -81 17 -95 26 -25 14 -25 14 19
9 25 -3 65 -2 90 4 70 14 148 12 179 -4z"/>
<path d="M1707 1255 l-178 -114 -82 19 c-90 21 -263 40 -369 40 -61 0 -68 -2
-68 -20 0 -14 7 -20 23 -20 128 -1 422 -34 432 -49 2 -4 -11 -15 -30 -24 -27
-13 -45 -14 -88 -7 -95 15 -271 24 -264 13 4 -6 32 -13 64 -17 126 -14 212
-30 207 -38 -3 -4 -18 -15 -34 -23 -24 -13 -49 -13 -157 -4 -118 9 -129 9
-141 -8 -12 -16 -9 -19 30 -25 24 -3 64 -7 90 -7 25 -1 54 -4 62 -7 15 -6 15
-8 -1 -20 -13 -9 -51 -13 -125 -14 -60 0 -108 -4 -108 -9 0 -5 35 -13 77 -17
l77 -9 -51 -28 c-48 -26 -58 -27 -182 -27 -72 0 -150 -4 -173 -10 -111 -25
-244 -58 -258 -63 -16 -7 -58 19 -48 29 11 11 181 53 260 65 72 10 78 13 64
27 -13 14 -24 13 -108 -3 -51 -9 -130 -28 -176 -41 -87 -25 -143 -31 -126 -14
16 16 152 60 244 79 79 17 83 19 60 31 -65 33 -108 94 -119 168 -9 66 -23 70
-134 43 -183 -44 -295 -118 -317 -211 -15 -62 5 -140 70 -277 55 -115 194
-327 257 -390 173 -174 718 -228 1042 -103 102 39 149 81 228 204 145 223 216
374 229 490 11 89 -39 166 -140 218 l-28 15 98 68 c123 84 154 113 154 142 0
29 -33 63 -62 63 -13 0 -103 -52 -201 -115z m213 51 c0 -7 -12 -21 -27 -32
-79 -58 -319 -214 -483 -314 -102 -62 -202 -123 -224 -137 -30 -20 -46 -23
-73 -18 -20 3 -32 10 -27 14 5 5 137 87 294 183 157 97 338 210 404 251 113
73 136 82 136 53z m-1455 -203 c-4 -16 -7 -29 -8 -29 -1 -1 -31 -9 -67 -18
-86 -21 -189 -74 -214 -109 -21 -28 -21 -28 -1 -65 17 -31 39 -47 145 -100
158 -80 204 -96 337 -118 81 -14 161 -18 323 -18 229 1 360 16 480 53 85 27
288 139 314 174 28 37 14 72 -47 117 -41 30 -45 37 -32 49 17 18 45 6 101 -44
27 -23 37 -40 41 -73 5 -39 3 -46 -28 -78 -19 -20 -67 -56 -107 -82 -41 -26
-69 -48 -64 -50 14 -4 98 34 149 69 25 18 42 26 38 18 -40 -70 -173 -148 -340
-198 -38 -12 -108 -32 -155 -46 l-85 -25 110 4 c124 4 246 32 340 76 33 16 61
28 62 26 2 -1 -36 -26 -84 -54 -92 -55 -94 -69 -3 -26 62 29 62 27 -6 -21 -47
-34 -54 -46 -13 -25 10 6 19 8 19 6 0 -3 -29 -22 -65 -43 -35 -20 -63 -38 -61
-40 2 -2 27 5 55 16 84 32 58 13 -61 -44 -117 -57 -100 -68 20 -14 34 15 60
24 57 20 -8 -14 -146 -78 -214 -100 -88 -29 -292 -67 -441 -82 -149 -16 -127
-26 60 -28 161 -1 266 14 436 64 10 3 -8 -8 -41 -25 -65 -32 -63 -39 5 -15 24
8 45 13 47 11 9 -9 -147 -58 -231 -72 -70 -12 -136 -15 -286 -11 -218 5 -298
20 -425 81 -68 32 -146 87 -100 70 114 -42 175 -58 175 -46 0 12 -100 70 -173
99 -47 18 -75 37 -97 65 l-31 38 53 -21 c81 -33 204 -68 297 -84 97 -17 311
-20 311 -5 0 15 -9 16 -150 29 -198 18 -375 63 -503 127 -62 32 -64 34 -122
147 l-46 87 88 -41 c122 -58 117 -56 226 -84 165 -41 439 -63 607 -47 85 8 84
8 -85 15 -350 16 -517 49 -723 143 -124 57 -151 87 -152 170 0 73 30 112 128
160 44 22 203 72 236 74 4 0 5 -12 1 -27z m20 -107 c14 -21 25 -39 23 -40 -2
-1 -37 -12 -78 -25 -41 -13 -96 -35 -122 -48 -45 -25 -48 -25 -73 -9 -38 25
-33 60 13 90 40 26 194 78 209 71 1 0 14 -18 28 -39z m501 -231 c57 -9 121
-22 143 -30 34 -12 42 -11 61 2 18 13 22 13 18 2 -9 -26 -81 -42 -216 -47
-171 -6 -302 18 -302 55 0 35 127 43 296 18z"/>
<path d="M417 1316 c-7 -18 20 -36 55 -36 55 0 79 -39 98 -158 15 -92 40 -124
121 -153 59 -22 111 -60 120 -88 7 -20 39 -7 39 15 0 29 -72 88 -134 109 -77
26 -96 53 -112 156 -19 118 -46 151 -135 164 -37 6 -47 4 -52 -9z"/>
</g>
</svg>
