<svg width="155" height="52" viewBox="0 0 155 52" fill="none" xmlns="http://www.w3.org/2000/svg">
<path d="M106.789 41.8941C109.11 41.8941 117.984 42.0263 119.999 42.0263C122.014 42.0263 123.292 42.1064 124.732 41.6524C125.977 41.0293 126.517 39.919 126.535 38.6994C126.517 37.6731 126.085 36.8338 125.235 36.1788C124.386 35.5061 123.078 34.9935 121.308 34.64L114.248 33.2334C110.269 32.4361 107.304 31.0562 105.359 29.0939C103.431 27.1316 102.468 24.6288 102.468 21.5855C102.468 18.9682 103.175 16.7122 104.589 14.8198C106.022 12.9274 108.029 11.4675 110.612 10.4412C113.212 9.41486 116.256 8.90234 119.741 8.90234C124.889 8.90234 128.939 9.99096 131.893 12.1644C134.527 14.0939 136.189 16.6415 136.877 19.8089C137.022 20.4757 136.515 21.0883 135.834 21.1302L127.769 21.6267C127.182 21.6628 126.672 21.2524 126.449 20.7078C126.244 20.2054 125.961 19.7364 125.603 19.3014C125.02 18.5765 124.251 18.0017 123.294 17.5782C122.356 17.1344 121.235 16.9156 119.925 16.9156C118.174 16.9156 116.697 17.287 115.494 18.0284C114.29 18.7533 113.69 19.7275 113.69 20.9471C113.69 21.9212 114.078 22.7428 114.858 23.4155C115.635 24.0883 116.973 24.6262 118.866 25.0345L126.243 26.5212C130.206 27.3351 133.16 28.6424 135.104 30.4483C137.049 32.2517 138.023 34.6222 138.023 37.5587C138.023 40.2281 137.499 42.6458 135.925 44.6628C134.368 46.6798 131.938 48.7399 129.213 49.8705C126.598 50.9553 114.144 51.2401 106.789 51.1079" fill="white"/>
<path d="M18.2612 10.3859C17.491 10.3945 16.9365 11.1283 17.1386 11.8716L27.569 50.2307C27.7084 50.7431 28.1736 51.0988 28.7047 51.0988H38.7433C39.2702 51.0988 39.7329 50.7486 39.876 50.2415L45.7612 29.388C46.083 28.2477 47.6981 28.2441 48.0251 29.3829L54.0166 50.2467C54.1615 50.7512 54.6229 51.0988 55.1478 51.0988H65.3261C65.8533 51.0988 66.3161 50.7482 66.459 50.2408L74.3182 22.327C74.5296 21.5762 73.9654 20.8312 73.1854 20.8312H64.8335C64.2997 20.8312 63.8327 21.1904 63.6959 21.7064L60.6316 33.2615C60.3209 34.4331 58.6558 34.4268 58.3541 33.2528L52.7078 11.2867C52.5741 10.7665 52.1051 10.4028 51.5679 10.4028H42.3409C41.7975 10.4028 41.3248 10.7748 41.197 11.303L35.9473 33.0054C35.6568 34.2063 33.9484 34.2054 33.6591 33.0042L28.4062 11.1874C28.2777 10.6539 27.7976 10.28 27.2489 10.2861L18.2612 10.3859Z" fill="white"/>
<path d="M59.499 18.4404C58.9325 18.4404 58.4465 18.0368 58.3422 17.4801L57.092 10.8045C56.9564 10.0803 57.512 9.41094 58.2488 9.41094H76.9965C77.6465 9.41094 78.1734 8.88402 78.1734 8.23402V1.17692C78.1734 0.526924 78.7003 0 79.3503 0H88.4439C89.0939 0 89.6208 0.526925 89.6208 1.17692V8.23402C89.6208 8.88402 90.1477 9.41094 90.7977 9.41094H102.634C103.5 9.41094 104.069 10.315 103.695 11.0962L100.498 17.7718C100.302 18.1804 99.8896 18.4404 99.4366 18.4404H90.7914C90.1439 18.4404 89.618 18.9634 89.6145 19.611L89.5 40.9116C89.4965 41.5641 90.0244 42.0949 90.6769 42.0949H103.294V51.2515H79.3503C78.7003 51.2515 78.1734 50.7246 78.1734 50.0746V19.6173C78.1734 18.9673 77.6465 18.4404 76.9965 18.4404H59.499Z" fill="white"/>
<path d="M151.557 11.5843C151.645 13.8508 151.693 16.1206 151.835 18.384C151.92 19.7338 152.169 21.0719 152.761 22.3013C153.143 23.0966 153.654 23.7325 154.545 23.9257C154.676 23.9543 154.856 24.1951 154.86 24.3429C154.889 25.2565 154.884 26.1722 154.864 27.0869C154.861 27.2221 154.732 27.4513 154.63 27.4724C153.254 27.7618 152.763 28.8898 152.385 30.1054C151.732 32.2072 151.676 34.3946 151.653 36.5766C151.619 39.7959 151.631 43.0172 151.629 46.2365C151.627 49.0829 149.438 51.4054 146.742 51.4117C146.31 51.4117 145.877 51.4065 145.444 51.4138C145.151 51.4191 145.017 51.2829 145.019 50.9713C145.024 50.0736 145.025 49.1769 145.02 48.2791C145.018 47.9612 145.163 47.844 145.453 47.8482C145.886 47.8545 146.32 47.8577 146.751 47.8292C147.574 47.7732 148.146 47.1902 148.228 46.3262C148.263 45.9597 148.265 45.588 148.266 45.2194C148.275 41.6653 148.231 38.1102 148.306 34.5572C148.357 32.1217 148.719 29.7199 149.741 27.4924C149.979 26.9749 150.299 26.4965 150.612 26.0223C150.755 25.8047 150.807 25.6568 150.633 25.4266C149.319 23.6849 148.84 21.6053 148.528 19.4708C148.115 16.6381 148.298 13.7822 148.27 10.9347C148.252 9.14028 148.278 7.34478 148.254 5.55033C148.239 4.43606 147.839 3.8013 147.03 3.63759C146.563 3.54359 146.068 3.55521 145.588 3.57633C145.146 3.59534 145 3.41896 145.013 2.96269C145.038 2.13676 145.002 1.30766 145.035 0.482785C145.042 0.320133 145.242 0.0339086 145.36 0.0296839C146.624 -0.0210127 147.892 -0.0928329 149.052 0.628537C150.689 1.64564 151.6 3.12218 151.623 5.1437C151.647 7.28986 151.628 9.43707 151.628 11.5843C151.604 11.5843 151.581 11.5864 151.557 11.5875V11.5843Z" fill="white"/>
<path d="M3.44241 11.5843C3.35446 13.8508 3.30649 16.1206 3.16357 18.384C3.07862 19.7338 2.82977 21.0719 2.23812 22.3013C1.85635 23.0966 1.34465 23.7325 0.454173 23.9257C0.323251 23.9543 0.143357 24.1951 0.13936 24.3429C0.110377 25.2565 0.115374 26.1722 0.135362 27.0869C0.13836 27.2221 0.267283 27.4513 0.369223 27.4724C1.74541 27.7618 2.23612 28.8898 2.6139 30.1054C3.26751 32.2072 3.32348 34.3946 3.34646 36.5766C3.38044 39.7959 3.36845 43.0172 3.37045 46.2365C3.37245 49.0829 5.56116 51.4054 8.25656 51.4117C8.68931 51.4117 9.12205 51.4065 9.5548 51.4138C9.84762 51.4191 9.98154 51.2829 9.97954 50.9713C9.97455 50.0736 9.97355 49.1769 9.97855 48.2791C9.98055 47.9612 9.83563 47.844 9.5458 47.8482C9.11306 47.8545 8.67931 47.8577 8.24757 47.8292C7.42506 47.7732 6.85339 47.1902 6.77144 46.3262C6.73646 45.9597 6.73446 45.588 6.73346 45.2194C6.72447 41.6653 6.76844 38.1102 6.69349 34.5572C6.64252 32.1217 6.27973 29.7199 5.25834 27.4924C5.02048 26.9749 4.69967 26.4965 4.38685 26.0223C4.24393 25.8047 4.19197 25.6568 4.36586 25.4266C5.68009 23.6849 6.1588 21.6053 6.47062 19.4708C6.88437 16.6381 6.70148 13.7822 6.72947 10.9347C6.74746 9.14028 6.72147 7.34478 6.74546 5.55033C6.76045 4.43606 7.16021 3.8013 7.96873 3.63759C8.43646 3.54359 8.93116 3.55521 9.41088 3.57633C9.85262 3.59534 9.99853 3.41896 9.98554 2.96269C9.96056 2.13676 9.99653 1.30766 9.96355 0.482785C9.95656 0.320133 9.75668 0.0339086 9.63875 0.0296839C8.37549 -0.0210127 7.10724 -0.0928329 5.94693 0.628537C4.30989 1.64564 3.39943 3.12218 3.37645 5.1437C3.35246 7.28986 3.37145 9.43707 3.37145 11.5843C3.39544 11.5843 3.41842 11.5864 3.44241 11.5875V11.5843Z" fill="white"/>
</svg>
